<svg id="Layer_1" data-name="Layer 1" xmlns="http://www.w3.org/2000/svg" viewBox="0 0 872.7 76.57">
  <defs>
    <style>
      .cls-1 {
        fill: #1a1a1a;
      }
    </style>
  </defs>
  <title>logotype</title>
  <g>
    <path class="cls-1" d="M229.72,284.89h12.34v75H229.72Zm5.11,0H279v11.82H234.83Zm0,31.89h38.44v11.76H234.83Zm0,31.32H279v11.82H234.83Z" transform="translate(-229.72 -284.12)"/>
    <path class="cls-1" d="M295.52,284.84h12.33v75.08H295.52Zm5.11,32.3h25.85a8.08,8.08,0,0,0,7.64-4.85,13.19,13.19,0,0,0,1.13-5.42,12.54,12.54,0,0,0-1.08-5.36,8.27,8.27,0,0,0-3.07-3.59,8.44,8.44,0,0,0-4.62-1.26H300.63V284.84h26.21A22.17,22.17,0,0,1,338,287.57a19,19,0,0,1,7.45,7.74,26.56,26.56,0,0,1,0,23.17,18.79,18.79,0,0,1-7.48,7.74A22.09,22.09,0,0,1,326.84,329H300.63Zm18.11,9.49,12.8-2.37,19.71,35.66H336.44Z" transform="translate(-229.72 -284.12)"/>
    <path class="cls-1" d="M379.12,359.92H366.53v-75h12.59Z" transform="translate(-229.72 -284.12)"/>
    <path class="cls-1" d="M409.7,357.31a22.71,22.71,0,0,1-9.23-9.68,32.28,32.28,0,0,1-3.23-14.91V312.14a32.35,32.35,0,0,1,3.23-14.92,22.93,22.93,0,0,1,9.23-9.7,28.28,28.28,0,0,1,14.17-3.4A25.87,25.87,0,0,1,436.12,287a24.65,24.65,0,0,1,9.13,8.33,33.51,33.51,0,0,1,5,12.87H437.54a18.12,18.12,0,0,0-2.94-6.32,14,14,0,0,0-4.77-4.15,12.71,12.71,0,0,0-6-1.45,13.78,13.78,0,0,0-7.41,1.94,12.71,12.71,0,0,0-4.82,5.5,19.21,19.21,0,0,0-1.7,8.41v20.58a19.21,19.21,0,0,0,1.7,8.41,12.51,12.51,0,0,0,4.82,5.47,13.85,13.85,0,0,0,7.41,1.91,13.15,13.15,0,0,0,6-1.39,13.6,13.6,0,0,0,4.77-4.08,17.17,17.17,0,0,0,2.89-6.45h12.69a34.19,34.19,0,0,1-5,12.88,24.73,24.73,0,0,1-9.13,8.33,25.75,25.75,0,0,1-12.2,2.89A28.48,28.48,0,0,1,409.7,357.31Z" transform="translate(-229.72 -284.12)"/>
    <path class="cls-1" d="M497.83,284.89h12.33v75H497.83Zm6.55,32h42.67v11.82H504.38Zm35.29-32H552v75H539.67Z" transform="translate(-229.72 -284.12)"/>
    <path class="cls-1" d="M592.11,284.89h9l28.18,75H616L596.6,304l-19.41,55.89H563.93Zm-14.92,49h39.48v11.81H577.19Z" transform="translate(-229.72 -284.12)"/>
    <path class="cls-1" d="M690.41,318.74v13.88a31.36,31.36,0,0,1-3.33,14.73,23.88,23.88,0,0,1-9.39,9.86,27.74,27.74,0,0,1-14.06,3.48,29.66,29.66,0,0,1-14.19-3.28,23.27,23.27,0,0,1-9.52-9.26,27.79,27.79,0,0,1-3.38-13.88V312.14a31.19,31.19,0,0,1,3.33-14.71,23.87,23.87,0,0,1,9.39-9.83,27.74,27.74,0,0,1,14.06-3.48,27,27,0,0,1,12.13,2.76,25.21,25.21,0,0,1,9.28,7.82,29.13,29.13,0,0,1,5.06,11.71H676.48a13.14,13.14,0,0,0-7.56-8.7,14.15,14.15,0,0,0-5.6-1.16,13.91,13.91,0,0,0-7.4,1.94A13,13,0,0,0,651,304a18.14,18.14,0,0,0-1.75,8.18v22.13a14.71,14.71,0,0,0,1.78,7.35,12.2,12.2,0,0,0,5.05,4.91,16,16,0,0,0,7.56,1.72,14.7,14.7,0,0,0,7.43-1.83,12.21,12.21,0,0,0,4.93-5.31,18.46,18.46,0,0,0,1.73-8.28v-2.27H664.41V318.74Z" transform="translate(-229.72 -284.12)"/>
    <path class="cls-1" d="M708,284.89h12.33v75H708Zm5.1,0h44.12v11.82H713.12Zm0,31.89h38.44v11.76H713.12Zm0,31.32h44.12v11.82H713.12Z" transform="translate(-229.72 -284.12)"/>
    <path class="cls-1" d="M824.38,284.89h14.24v75H827.06V302.69l.52,3.31-16.41,44.52h-9.91L784.85,307l.52-4.34v57.23H773.81v-75h14.24l18.17,50.05Z" transform="translate(-229.72 -284.12)"/>
    <path class="cls-1" d="M858.8,284.89h12.34v75H858.8Zm5.11,0H908v11.82H863.91Zm0,31.89h38.44v11.76H863.91Zm0,31.32H908v11.82H863.91Z" transform="translate(-229.72 -284.12)"/>
    <path class="cls-1" d="M948.54,330.19v29.73H936.26V330.19l-22.49-45.3H927L942.4,318l15.38-33.08H971Z" transform="translate(-229.72 -284.12)"/>
    <path class="cls-1" d="M980.91,284.89h12.33v75H980.91Zm5.1,0h44.12v11.82H986Zm0,31.89h38.45v11.76H986Zm0,31.32h44.12v11.82H986Z" transform="translate(-229.72 -284.12)"/>
    <path class="cls-1" d="M1046.7,284.84H1059v75.08H1046.7Zm5.11,32.3h25.85a8.08,8.08,0,0,0,7.64-4.85,13.19,13.19,0,0,0,1.13-5.42,12.54,12.54,0,0,0-1.08-5.36,8.27,8.27,0,0,0-3.07-3.59,8.42,8.42,0,0,0-4.62-1.26h-25.85V284.84H1078a22.17,22.17,0,0,1,11.15,2.73,19,19,0,0,1,7.45,7.74,26.56,26.56,0,0,1,0,23.17,18.79,18.79,0,0,1-7.48,7.74A22.06,22.06,0,0,1,1078,329h-26.21Zm18.11,9.49,12.8-2.37,19.71,35.66h-14.81Z" transform="translate(-229.72 -284.12)"/>
  </g>
</svg>
