<svg id="Logo" xmlns="http://www.w3.org/2000/svg" viewBox="0 0 497.51 497.51">
  <defs>
    <style>
      .cls-1 {
        fill: #ff6a57;
      }
    </style>
  </defs>
  <title>logo-primary</title>
  <g id="Logo-2" data-name="Logo">
    <path class="cls-1" d="M252.12,502.12a3,3,0,0,1,0-4.24L497.88,252.12a3,3,0,0,1,4.24,0l45.76,45.76a3,3,0,0,1,0,4.24L352.12,497.88a3,3,0,0,0,0,4.24l45.76,45.76a3,3,0,0,0,4.24,0l95.76-95.76a3,3,0,0,1,4.24,0l45.76,45.76a3,3,0,0,1,0,4.24l-95.76,95.76a3,3,0,0,0,0,4.24l45.76,45.76a3,3,0,0,0,4.24,0L697.88,452.12a3,3,0,0,1,4.24,0l45.76,45.76a3,3,0,0,1,0,4.24L502.12,747.88a3,3,0,0,1-4.24,0Zm350-150a3,3,0,0,0-4.24,0l-45.76,45.76a3,3,0,0,0,0,4.24l45.76,45.76a3,3,0,0,0,4.24,0l45.76-45.76a3,3,0,0,0,0-4.24Z" transform="translate(-251.25 -251.25)"/>
  </g>
</svg>
