<svg id="Layer_1" data-name="Layer 1" xmlns="http://www.w3.org/2000/svg" viewBox="0 0 888.5 102.93">
  <defs>
    <style>
      .cls-1 {
        fill: #424242;
      }
    </style>
  </defs>
  <title>logotype</title>
  <g>
    <path class="cls-1" d="M8.77,15.32H21.1v75H8.77Zm5.11,0H58V27.14H13.88Zm0,31.89H52.32V59H13.88Zm0,31.32H58V90.35H13.88Z"/>
    <path class="cls-1" d="M74.57,15.27H86.9V90.35H74.57Zm5.11,32.3h25.85a8.31,8.31,0,0,0,4.56-1.26,8.21,8.21,0,0,0,3.07-3.59,13.17,13.17,0,0,0,1.14-5.41,12.62,12.62,0,0,0-1.08-5.37,8.09,8.09,0,0,0-7.69-4.85H79.68V15.27h26.21A22,22,0,0,1,117,18a18.87,18.87,0,0,1,7.46,7.74,24.28,24.28,0,0,1,2.66,11.56,24.36,24.36,0,0,1-2.66,11.6A18.85,18.85,0,0,1,117,56.65a22.12,22.12,0,0,1-11.12,2.74H79.68Zm18.11,9.5,12.79-2.38,19.71,35.66h-14.8Z"/>
    <path class="cls-1" d="M158.17,90.35H145.58v-75h12.59Z"/>
    <path class="cls-1" d="M188.75,87.74a22.71,22.71,0,0,1-9.24-9.67,32.33,32.33,0,0,1-3.22-14.91V42.57a32.28,32.28,0,0,1,3.22-14.91,22.84,22.84,0,0,1,9.24-9.7,28.27,28.27,0,0,1,14.16-3.41,25.91,25.91,0,0,1,12.26,2.89,24.73,24.73,0,0,1,9.13,8.33,33.49,33.49,0,0,1,5,12.88H216.59a18,18,0,0,0-2.94-6.32,14.18,14.18,0,0,0-4.78-4.16,12.67,12.67,0,0,0-6-1.44,13.76,13.76,0,0,0-7.4,1.93,12.71,12.71,0,0,0-4.82,5.5A19.21,19.21,0,0,0,189,42.57V63.16a19.27,19.27,0,0,0,1.71,8.41A12.63,12.63,0,0,0,195.51,77a13.93,13.93,0,0,0,7.4,1.9,13.12,13.12,0,0,0,6-1.39,13.7,13.7,0,0,0,4.78-4.07A17.17,17.17,0,0,0,216.59,67h12.69a34.37,34.37,0,0,1-5,12.87,24.72,24.72,0,0,1-9.13,8.33,25.82,25.82,0,0,1-12.21,2.89A28.37,28.37,0,0,1,188.75,87.74Z"/>
    <path class="cls-1" d="M276.87,15.32h12.34v75H276.87Zm6.56,32.05H326.1V59.18H283.43Zm35.29-32h12.33v75H318.72Z"/>
    <path class="cls-1" d="M371.15,15.32h9l28.17,75H395l-19.4-55.88-19.4,55.88H343Zm-14.91,49h39.47V76.11H356.24Z"/>
    <path class="cls-1" d="M469.46,49.17V63.05a31.3,31.3,0,0,1-3.33,14.73,23.82,23.82,0,0,1-9.39,9.86,27.74,27.74,0,0,1-14.06,3.48,29.72,29.72,0,0,1-14.19-3.27A23.35,23.35,0,0,1,419,78.58a27.76,27.76,0,0,1-3.38-13.88V42.57a31.22,31.22,0,0,1,3.33-14.71A23.93,23.93,0,0,1,428.31,18a27.74,27.74,0,0,1,14.06-3.48,26.9,26.9,0,0,1,12.12,2.76,25.33,25.33,0,0,1,9.29,7.82,29.27,29.27,0,0,1,5.06,11.71H455.53A13.22,13.22,0,0,0,448,28.15a14.71,14.71,0,0,0-13,.77A13,13,0,0,0,430,34.39a18.17,18.17,0,0,0-1.76,8.18V64.7a14.88,14.88,0,0,0,1.78,7.36,12.2,12.2,0,0,0,5.06,4.9,16,16,0,0,0,7.56,1.73,14.62,14.62,0,0,0,7.43-1.84A12.26,12.26,0,0,0,455,71.54a18.46,18.46,0,0,0,1.72-8.28V61H443.45V49.17Z"/>
    <path class="cls-1" d="M487.06,15.32h12.33v75H487.06Zm5.11,0h44.12V27.14H492.17Zm0,31.89h38.44V59H492.17Zm0,31.32h44.12V90.35H492.17Z"/>
    <path class="cls-1" d="M603.43,15.32h14.24v75H606.11V33.13l.51,3.3L590.22,81h-9.91L563.9,37.46l.52-4.33V90.35H552.86v-75H567.1l18.16,50.05Z"/>
    <path class="cls-1" d="M637.85,15.32h12.33v75H637.85Zm5.11,0h44.12V27.14H643Zm0,31.89H681.4V59H643Zm0,31.32h44.12V90.35H643Z"/>
    <path class="cls-1" d="M727.59,60.63V90.35H715.31V60.63l-22.5-45.31h13.26L721.45,48.4l15.38-33.08h13.26Z"/>
    <path class="cls-1" d="M760,15.32h12.34v75H760Zm5.11,0h44.12V27.14H765.06Zm0,31.89H803.5V59H765.06Zm0,31.32h44.12V90.35H765.06Z"/>
    <path class="cls-1" d="M825.75,15.27h12.33V90.35H825.75Zm5.11,32.3h25.85a8.08,8.08,0,0,0,7.64-4.85,13.17,13.17,0,0,0,1.13-5.41,12.62,12.62,0,0,0-1.08-5.37,8.09,8.09,0,0,0-7.69-4.85H830.86V15.27h26.21A22,22,0,0,1,868.21,18a18.87,18.87,0,0,1,7.46,7.74,24.28,24.28,0,0,1,2.66,11.56,24.36,24.36,0,0,1-2.66,11.6,18.79,18.79,0,0,1-7.48,7.74,22.09,22.09,0,0,1-11.12,2.74H830.86ZM849,57.07l12.8-2.38,19.71,35.66H866.67Z"/>
  </g>
</svg>
